<?xml version="1.0" standalone="no"?>
<!DOCTYPE svg PUBLIC "-//W3C//DTD SVG 20010904//EN"
 "http://www.w3.org/TR/2001/REC-SVG-20010904/DTD/svg10.dtd">
<svg version="1.0" xmlns="http://www.w3.org/2000/svg"
 width="127.000000pt" height="127.000000pt" viewBox="0 0 127.000000 127.000000"
 preserveAspectRatio="xMidYMid meet">
<metadata>
Created by potrace 1.11, written by Peter Selinger 2001-2013
</metadata>
<g transform="translate(0.000000,127.000000) scale(0.100000,-0.100000)"
fill="#000000" stroke="none">
<path d="M327 993 c-13 -12 -7 -80 7 -92 22 -19 23 -492 1 -511 -9 -7 -15 -29
-15 -52 0 -31 4 -41 20 -45 11 -3 17 -10 13 -17 -4 -6 1 -5 11 3 15 13 19 13
26 1 5 -8 6 -19 2 -25 -3 -5 1 -4 10 3 12 9 18 10 23 2 4 -7 11 -8 18 -2 7 5
20 8 29 7 10 -2 20 0 22 4 3 4 -17 7 -44 6 -28 -1 -47 1 -44 4 8 8 195 8 200
0 2 -4 -10 -5 -26 -4 -17 1 -30 -1 -30 -4 0 -4 43 -7 96 -6 52 1 98 -3 100 -7
3 -5 11 -5 17 -1 7 4 19 8 27 8 8 0 21 4 29 9 8 5 28 10 44 12 20 1 25 -1 16
-7 -11 -7 -10 -9 4 -9 11 0 15 -5 11 -11 -4 -8 1 -9 15 -4 16 5 27 1 42 -16
10 -12 19 -18 19 -13 0 6 -5 15 -12 22 -9 9 -9 12 -1 12 7 0 15 -4 18 -10 3
-5 14 -10 23 -9 11 0 12 3 5 6 -17 6 -17 24 0 22 6 -1 19 -1 27 0 13 1 13 3 1
10 -8 5 -21 7 -30 4 -11 -4 -10 -1 4 10 16 13 17 17 6 31 -12 14 -11 16 5 16
16 0 16 2 4 9 -8 6 -18 7 -24 4 -5 -3 -6 -1 -2 6 4 6 11 9 16 6 4 -3 10 2 13
10 4 9 1 12 -8 9 -10 -4 -12 0 -8 15 3 12 1 21 -5 21 -6 0 -9 13 -7 28 3 28 2
29 -45 31 -26 1 -51 -3 -55 -9 -4 -6 -64 -10 -160 -10 -150 0 -155 1 -178 24
-27 26 -25 44 2 23 14 -11 14 -10 2 6 -8 10 -20 16 -28 13 -10 -4 -11 -2 -4
11 5 10 6 24 1 34 -6 11 -5 16 5 16 8 0 11 -5 8 -11 -3 -6 -2 -8 2 -3 5 4 9
16 10 27 1 14 -2 17 -10 10 -9 -8 -12 -4 -12 15 0 14 4 25 9 25 5 0 6 -5 2
-12 -4 -7 -3 -8 5 -4 9 6 9 11 0 22 -6 7 -16 11 -22 7 -6 -4 -7 -1 -3 6 5 7
14 10 22 7 7 -3 16 0 20 6 4 7 3 8 -4 4 -7 -4 -12 -3 -12 3 0 5 5 13 12 17 7
5 2 15 -17 30 -26 21 -17 29 13 11 6 -5 12 -4 12 2 0 5 -9 13 -20 16 -22 7
-26 20 -8 31 7 4 8 3 4 -4 -4 -7 -3 -12 2 -12 6 0 12 6 15 14 4 10 -1 13 -18
12 -21 -3 -22 -1 -13 25 5 16 14 26 20 23 6 -4 6 2 -1 14 -16 30 -13 39 5 16
8 -10 13 -13 9 -6 -3 6 -2 12 3 12 6 0 9 8 8 18 0 9 5 16 12 14 8 -1 11 2 7 8
-4 6 -13 9 -19 7 -7 -3 -13 1 -13 9 0 7 5 10 11 7 6 -4 5 1 -3 10 -7 9 -10 17
-5 17 5 0 2 5 -6 10 -17 11 -223 14 -233 3z m217 -269 c13 -5 14 -9 5 -20 -6
-8 -17 -14 -23 -14 -6 0 -4 5 4 10 13 9 13 11 0 20 -17 11 -10 13 14 4z m6
-244 c8 -5 12 -11 10 -14 -3 -2 -14 2 -24 10 -22 15 -10 19 14 4z m134 -201
c3 -3 -5 -5 -19 -5 -13 0 -22 3 -19 7 4 8 30 6 38 -2z m121 -1 c4 -4 -1 -5
-12 -4 -10 2 -23 -1 -30 -6 -7 -5 -14 -5 -18 2 -3 6 -11 7 -17 4 -6 -4 -8 -3
-5 3 7 10 72 11 82 1z"/>
<path d="M540 830 c0 -5 5 -10 11 -10 5 0 7 5 4 10 -3 6 -8 10 -11 10 -2 0 -4
-4 -4 -10z"/>
<path d="M550 555 c-7 -9 -8 -15 -2 -15 5 0 12 7 16 15 3 8 4 15 2 15 -2 0 -9
-7 -16 -15z"/>
<path d="M1005 438 c8 -21 14 -22 35 -7 13 9 13 10 -1 6 -9 -3 -22 0 -28 6 -9
9 -11 8 -6 -5z"/>
<path d="M1031 314 c0 -11 3 -14 6 -6 3 7 2 16 -1 19 -3 4 -6 -2 -5 -13z"/>
<path d="M516 248 c3 -5 10 -6 15 -3 13 9 11 12 -6 12 -8 0 -12 -4 -9 -9z"/>
<path d="M838 253 c7 -3 16 -2 19 1 4 3 -2 6 -13 5 -11 0 -14 -3 -6 -6z"/>
</g>
</svg>
